<svg width="340" height="309" viewBox="0 0 340 309" fill="none" xmlns="http://www.w3.org/2000/svg">
<g clip-path="url(#clip0_1437_5499)">
<path d="M172.714 76.888H47.9146C39.794 76.888 33.2109 83.471 33.2109 91.5917V214.801C33.2109 222.922 39.794 229.505 47.9146 229.505H172.714C180.834 229.505 187.417 222.922 187.417 214.801V91.5917C187.417 83.471 180.834 76.888 172.714 76.888Z" fill="#616161"/>
<path d="M74.1215 79.9117C64.0732 79.9117 54.4365 83.9034 47.3313 91.0086C40.226 98.1138 36.2344 107.751 36.2344 117.799V214.801C36.2344 216.335 36.5365 217.854 37.1235 219.271C37.7104 220.688 38.5707 221.976 39.6553 223.06C40.7399 224.145 42.0275 225.005 43.4446 225.592C44.8616 226.179 46.3804 226.481 47.9142 226.481H127.564C142.636 226.481 157.091 220.494 167.748 209.836C178.405 199.179 184.393 184.724 184.393 169.652V91.5916C184.393 88.4939 183.162 85.5231 180.972 83.3327C178.781 81.1423 175.811 79.9117 172.713 79.9117H74.1215Z" fill="#F7F7F7"/>
<path d="M323.108 26.5165H11.5244C11.3786 26.5165 11.2387 26.4586 11.1356 26.3555C11.0325 26.2524 10.9746 26.1125 10.9746 25.9667C10.9746 25.8209 11.0325 25.6811 11.1356 25.578C11.2387 25.4749 11.3786 25.4169 11.5244 25.4169H323.108C323.254 25.4169 323.394 25.4749 323.497 25.578C323.6 25.6811 323.658 25.8209 323.658 25.9667C323.658 26.1125 323.6 26.2524 323.497 26.3555C323.394 26.4586 323.254 26.5165 323.108 26.5165Z" fill="#B0C0D0"/>
<path d="M27.1132 10.0115C29.681 10.0115 31.7626 7.88353 31.7626 5.25853C31.7626 2.63352 29.681 0.505539 27.1132 0.505539C24.5455 0.505539 22.4639 2.63352 22.4639 5.25853C22.4639 7.88353 24.5455 10.0115 27.1132 10.0115Z" fill="#B0C0D0"/>
<path d="M43.1748 10.0115C45.7425 10.0115 47.8241 7.88353 47.8241 5.25853C47.8241 2.63352 45.7425 0.505539 43.1748 0.505539C40.607 0.505539 38.5254 2.63352 38.5254 5.25853C38.5254 7.88353 40.607 10.0115 43.1748 10.0115Z" fill="#B0C0D0"/>
<path d="M59.2363 10.0115C61.8041 10.0115 63.8857 7.88353 63.8857 5.25853C63.8857 2.63352 61.8041 0.505539 59.2363 0.505539C56.6685 0.505539 54.5869 2.63352 54.5869 5.25853C54.5869 7.88353 56.6685 10.0115 59.2363 10.0115Z" fill="#B0C0D0"/>
<path d="M77.5503 9.01518C77.477 9.01528 77.4045 9.00069 77.337 8.97228C77.2695 8.94388 77.2084 8.90224 77.1573 8.84981L74.0201 5.64287C73.9196 5.54017 73.8633 5.40218 73.8633 5.25845C73.8633 5.11473 73.9196 4.97673 74.0201 4.87403L77.1573 1.66736C77.2076 1.61493 77.2677 1.57298 77.3343 1.54395C77.4009 1.51492 77.4726 1.49938 77.5453 1.49822C77.6179 1.49707 77.6901 1.51032 77.7576 1.53722C77.8251 1.56411 77.8865 1.60412 77.9385 1.65492C77.9904 1.70572 78.0318 1.76631 78.0601 1.83319C78.0885 1.90006 78.1034 1.9719 78.1038 2.04455C78.1043 2.1172 78.0903 2.18922 78.0628 2.25644C78.0352 2.32367 77.9946 2.38476 77.9433 2.4362L75.1822 5.25845L77.9433 8.08096C78.019 8.15833 78.0701 8.2563 78.0904 8.36261C78.1106 8.46892 78.099 8.57884 78.057 8.67859C78.0151 8.77834 77.9446 8.86348 77.8545 8.92336C77.7643 8.98323 77.6585 9.01517 77.5503 9.01518Z" fill="#B0C0D0"/>
<path d="M82.8221 9.01518C82.7139 9.01517 82.6081 8.98323 82.5179 8.92335C82.4278 8.86347 82.3573 8.77833 82.3153 8.67858C82.2734 8.57883 82.2618 8.46891 82.282 8.3626C82.3023 8.25629 82.3534 8.15833 82.4291 8.08096L85.1898 5.25845L82.4291 2.4362C82.3778 2.38476 82.3372 2.32366 82.3096 2.25644C82.2821 2.18921 82.2681 2.11719 82.2686 2.04454C82.269 1.97189 82.2838 1.90006 82.3122 1.83318C82.3406 1.7663 82.382 1.70571 82.4339 1.65491C82.4858 1.60411 82.5473 1.5641 82.6148 1.53721C82.6823 1.51031 82.7545 1.49707 82.8271 1.49822C82.8997 1.49938 82.9714 1.51492 83.038 1.54395C83.1046 1.57298 83.1648 1.61492 83.2151 1.66735L86.352 4.87402C86.4525 4.97672 86.5088 5.11473 86.5088 5.25845C86.5088 5.40217 86.4525 5.54017 86.352 5.64287L83.2151 8.8498C83.164 8.90223 83.1028 8.94388 83.0353 8.97228C82.9678 9.00069 82.8953 9.01528 82.8221 9.01518Z" fill="#B0C0D0"/>
<path d="M295.323 1.05583H289.489C289.331 1.05578 289.175 1.0869 289.028 1.14739C288.882 1.20788 288.75 1.29657 288.638 1.40839C288.526 1.5202 288.437 1.65295 288.377 1.79905C288.316 1.94516 288.285 2.10175 288.285 2.25988V8.09867C288.285 8.2568 288.316 8.41339 288.377 8.55949C288.437 8.70559 288.526 8.83835 288.638 8.95017C288.75 9.06198 288.882 9.15067 289.028 9.21116C289.175 9.27165 289.331 9.30276 289.489 9.30271H295.323C295.642 9.30302 295.949 9.17644 296.176 8.95073C296.403 8.72502 296.531 8.4186 296.532 8.09867V2.25988C296.531 1.93995 296.403 1.63353 296.176 1.40782C295.949 1.18211 295.642 1.05552 295.323 1.05583Z" fill="#B0C0D0"/>
<path d="M281.028 1.05583H275.194C275.036 1.05578 274.88 1.0869 274.733 1.14739C274.587 1.20788 274.455 1.29657 274.343 1.40839C274.231 1.5202 274.142 1.65295 274.082 1.79905C274.021 1.94516 273.99 2.10175 273.99 2.25988V8.09867C273.99 8.2568 274.021 8.41339 274.082 8.55949C274.142 8.70559 274.231 8.83835 274.343 8.95017C274.455 9.06198 274.587 9.15067 274.733 9.21116C274.88 9.27165 275.036 9.30276 275.194 9.30271H281.028C281.348 9.30302 281.655 9.17644 281.881 8.95073C282.108 8.72502 282.236 8.4186 282.237 8.09867V2.25988C282.236 1.93995 282.108 1.63353 281.881 1.40782C281.655 1.18211 281.348 1.05552 281.028 1.05583Z" fill="#B0C0D0"/>
<path d="M308.792 1.33072H302.959C302.801 1.33067 302.644 1.36179 302.498 1.42228C302.352 1.48277 302.219 1.57146 302.107 1.68327C301.996 1.79509 301.907 1.92784 301.846 2.07394C301.786 2.22004 301.755 2.37663 301.755 2.53477V8.37355C301.755 8.53168 301.786 8.68828 301.846 8.83438C301.907 8.98048 301.996 9.11324 302.107 9.22505C302.219 9.33687 302.352 9.42556 302.498 9.48605C302.644 9.54654 302.801 9.57765 302.959 9.5776H308.792C309.112 9.57791 309.419 9.45133 309.646 9.22562C309.873 8.9999 310.001 8.69348 310.002 8.37355V2.53477C310.001 2.21483 309.873 1.90841 309.646 1.6827C309.419 1.45699 309.112 1.33041 308.792 1.33072Z" fill="#B0C0D0"/>
<path d="M191.81 9.89625H153.874C152.562 9.89625 151.303 9.37494 150.375 8.44699C149.447 7.51903 148.926 6.26045 148.926 4.94813C148.926 3.6358 149.447 2.37723 150.375 1.44928C151.303 0.521324 152.562 0 153.874 0H191.81C193.122 0 194.38 0.521324 195.308 1.44928C196.236 2.37723 196.758 3.6358 196.758 4.94813C196.758 6.26045 196.236 7.51903 195.308 8.44699C194.38 9.37494 193.122 9.89625 191.81 9.89625Z" fill="#B0C0D0"/>
<path d="M129.348 174.504H44.6842C44.2 174.504 43.7356 174.311 43.3932 173.969C43.0508 173.627 42.8584 173.162 42.8584 172.678C42.8584 172.194 43.0508 171.729 43.3932 171.387C43.7356 171.045 44.2 170.852 44.6842 170.852H129.348C129.832 170.852 130.297 171.045 130.639 171.387C130.982 171.729 131.174 172.194 131.174 172.678C131.174 173.162 130.982 173.627 130.639 173.969C130.297 174.311 129.832 174.504 129.348 174.504Z" fill="#616161"/>
<path d="M129.348 122.426H1.82602C1.58599 122.426 1.34823 122.38 1.12635 122.288C0.904472 122.196 0.702828 122.062 0.532953 121.892C0.363078 121.723 0.228316 121.521 0.136364 121.3C0.0444116 121.078 -0.00292969 120.84 -0.00292969 120.6C-0.00292969 120.36 0.0444116 120.123 0.136364 119.901C0.228316 119.679 0.363078 119.478 0.532953 119.308C0.702828 119.139 0.904472 119.004 1.12635 118.913C1.34823 118.821 1.58599 118.774 1.82602 118.774H129.348C129.832 118.775 130.296 118.968 130.637 119.31C130.979 119.653 131.171 120.117 131.171 120.6C131.171 121.084 130.979 121.548 130.637 121.89C130.296 122.232 129.832 122.425 129.348 122.426Z" fill="#616161"/>
<path d="M129.351 135.464H1.82304C1.33899 135.464 0.875058 135.657 0.533077 136C0.191096 136.342 -0.000976562 136.807 -0.000976562 137.291C-0.000976562 137.775 0.191096 138.239 0.533077 138.582C0.875058 138.924 1.33899 139.117 1.82304 139.118H129.351C129.835 139.117 130.299 138.924 130.641 138.582C130.983 138.239 131.175 137.775 131.175 137.291C131.175 136.807 130.983 136.342 130.641 136C130.299 135.657 129.835 135.464 129.351 135.464Z" fill="#616161"/>
<path d="M129.348 155.81H1.82578C1.34156 155.81 0.877159 155.617 0.534759 155.275C0.192358 154.933 0 154.468 0 153.984C0 153.5 0.192358 153.035 0.534759 152.693C0.877159 152.351 1.34156 152.158 1.82578 152.158H129.348C129.832 152.158 130.297 152.351 130.639 152.693C130.982 153.035 131.174 153.5 131.174 153.984C131.174 154.468 130.982 154.933 130.639 155.275C130.297 155.617 129.832 155.81 129.348 155.81Z" fill="#616161"/>
<path d="M236.73 301.679L230.876 301.678L228.091 279.096L236.731 279.097L236.73 301.679Z" fill="#A0616A"/>
<path d="M236.936 307.786L218.933 307.785V307.558C218.933 305.699 219.671 303.917 220.985 302.603C222.299 301.289 224.082 300.551 225.94 300.55L229.229 298.056L235.365 300.551L236.936 300.551L236.936 307.786Z" fill="#2F2E41"/>
<path d="M295.636 301.679L289.782 301.678L286.997 279.096L295.638 279.097L295.636 301.679Z" fill="#A0616A"/>
<path d="M295.843 307.786L277.84 307.785V307.558C277.84 305.699 278.578 303.917 279.892 302.603C281.207 301.289 282.989 300.551 284.847 300.55L288.136 298.056L294.272 300.551L295.843 300.551L295.843 307.786Z" fill="#2F2E41"/>
<path d="M241.507 171.946C241.507 171.946 237.662 176.027 237.5 178.674C237.337 181.322 239.341 176.513 237.337 181.322C235.334 186.131 235.334 182.925 235.334 186.13C235.334 189.336 231.088 192.467 231.088 192.467L224.087 221.272L228.121 288.716H236.937C245.129 263.742 248.941 244.457 244.55 235.821L256.793 208.609C256.793 208.609 279.928 280.999 280.873 281.852C281.818 282.706 281.818 281.503 281.818 282.705C281.818 283.908 280.616 282.706 281.818 283.908L287.428 289.518L295.843 288.716C295.843 288.716 296.97 236.305 287.59 227.247C287.59 227.247 289.756 199.197 287.59 199.276C285.424 199.354 285.424 202.961 285.424 199.354C285.424 195.748 287.991 194.786 287.991 194.786L280.778 169.453L241.507 171.946Z" fill="#2F2E41"/>
<path d="M286.932 116.108L278.784 150.222L280.708 162.912L283.017 178.113L275.034 177.597L262.68 176.794L239.743 175.309L237.736 107.987L248.259 96.9915L250.14 91.6531L265.352 91.5596L268.992 97.9702L278.349 100.631C279.552 101.394 280.682 102.267 281.725 103.237C284.034 105.376 286.08 108.092 287.036 110.874C287.325 111.685 287.507 112.529 287.58 113.386L286.932 116.108Z" fill="#B0C0D0"/>
<path d="M216.12 202.666C216.733 202.327 217.265 201.859 217.68 201.294C218.094 200.729 218.381 200.082 218.52 199.395C218.66 198.709 218.648 198 218.487 197.319C218.325 196.637 218.018 195.999 217.585 195.448L229.19 174.322L224.136 169.675L210.536 194.868C209.663 195.665 209.112 196.754 208.988 197.93C208.865 199.105 209.177 200.286 209.865 201.247C210.553 202.208 211.57 202.883 212.723 203.145C213.876 203.406 215.085 203.236 216.12 202.666Z" fill="#B0C0D0"/>
<path d="M244.423 103.872L241.718 152.327L228.687 182.779L220.205 194.027L221.169 188.93L215.322 186.004L214.773 185.732L225.998 142.173L227.032 125.246C227.21 122.333 227.991 119.489 229.325 116.894C230.659 114.298 232.517 112.008 234.782 110.167L241.273 104.893L244.423 103.872Z" fill="#B0C0D0"/>
<path d="M216.12 202.666C216.733 202.327 217.265 201.859 217.68 201.294C218.094 200.729 218.381 200.082 218.52 199.395C218.66 198.709 218.648 198 218.487 197.319C218.325 196.637 218.018 195.999 217.585 195.448L229.19 174.322L224.136 169.675L210.536 194.868C209.663 195.665 209.112 196.754 208.988 197.93C208.865 199.105 209.177 200.286 209.865 201.247C210.553 202.208 211.57 202.883 212.723 203.145C213.876 203.406 215.085 203.236 216.12 202.666Z" fill="#A0616A"/>
<path d="M244.423 103.872L241.718 152.327L228.687 182.779L220.205 194.027L221.169 188.93L215.322 186.004L214.773 185.732L225.998 142.173L227.032 125.246C227.21 122.333 227.991 119.489 229.325 116.894C230.659 114.298 232.517 112.008 234.782 110.167L241.273 104.893L244.423 103.872Z" fill="#B0C0D0"/>
<path d="M256.983 105.542H132.184C124.064 105.542 117.48 112.125 117.48 120.246V184.628C117.48 192.748 124.064 199.331 132.184 199.331H256.983C265.104 199.331 271.687 192.748 271.687 184.628V120.246C271.687 112.125 265.104 105.542 256.983 105.542Z" fill="#F7F7F7"/>
<path d="M256.983 199.881H132.184C128.14 199.877 124.263 198.268 121.403 195.408C118.544 192.549 116.935 188.672 116.931 184.628V120.246C116.935 116.202 118.544 112.324 121.403 109.465C124.263 106.605 128.14 104.997 132.184 104.992H256.983C261.027 104.997 264.904 106.605 267.764 109.465C270.623 112.325 272.232 116.202 272.236 120.246V184.628C272.232 188.672 270.623 192.549 267.764 195.408C264.904 198.268 261.027 199.877 256.983 199.881ZM132.184 106.092C128.43 106.092 124.83 107.583 122.176 110.237C119.521 112.892 118.03 116.492 118.03 120.246V144.31C118.03 158.757 123.769 172.612 133.985 182.827C144.2 193.043 158.055 198.782 172.502 198.782H256.983C260.737 198.782 264.337 197.29 266.991 194.636C269.646 191.982 271.137 188.382 271.137 184.628V120.246C271.137 118.387 270.771 116.546 270.059 114.829C269.348 113.112 268.306 111.552 266.991 110.237C265.677 108.923 264.117 107.88 262.399 107.169C260.682 106.458 258.842 106.092 256.983 106.092L132.184 106.092Z" fill="#3F3D56"/>
<path d="M165.17 173.879H136.031C134.968 173.879 134.106 174.74 134.106 175.803C134.106 176.866 134.968 177.727 136.031 177.727H165.17C166.232 177.727 167.094 176.866 167.094 175.803C167.094 174.74 166.232 173.879 165.17 173.879Z" fill="#002952"/>
<path d="M253.137 168.656H232.794C231.732 168.656 230.87 169.517 230.87 170.58V181.026C230.87 182.089 231.732 182.95 232.794 182.95H253.137C254.199 182.95 255.061 182.089 255.061 181.026V170.58C255.061 169.517 254.199 168.656 253.137 168.656Z" fill="#002952"/>
<path d="M144.003 141.716C149.468 141.716 153.899 137.285 153.899 131.82C153.899 126.354 149.468 121.923 144.003 121.923C138.537 121.923 134.106 126.354 134.106 131.82C134.106 137.285 138.537 141.716 144.003 141.716Z" fill="#002952"/>
<path d="M257.191 88.7262C264.054 88.7262 269.617 83.1628 269.617 76.3C269.617 69.4372 264.054 63.8738 257.191 63.8738C250.328 63.8738 244.765 69.4372 244.765 76.3C244.765 83.1628 250.328 88.7262 257.191 88.7262Z" fill="#A0616A"/>
<path d="M267.385 82.7228C267.482 83.4651 266.139 83.5436 265.837 82.8589C265.534 82.1742 265.926 81.3982 266.308 80.7542L267.195 79.2595C267.362 78.978 267.459 78.6607 267.478 78.334C267.498 78.0073 267.439 77.6807 267.307 77.3814C267.174 77.0821 266.972 76.8188 266.717 76.6133C266.463 76.4079 266.163 76.2664 265.842 76.2004C266.653 74.3762 265.773 72.0993 264.157 70.9272C262.541 69.7551 260.136 71.9482 258.176 72.3243C256.215 72.7004 254.645 71.1998 252.858 72.0894L253.932 69.6141L247.988 72.1748L249.369 69.3903C247.869 69.472 247.231 71.2989 246.932 72.7711C246.613 74.3396 245.778 76.3004 244.072 75.9755C243.668 75.8853 243.297 75.6828 243.003 75.3912C242.708 75.0996 242.502 74.7307 242.408 74.3272C241.091 69.2465 244.916 63.6922 249.988 62.8011C250.53 61.3038 251.538 60.0195 252.863 59.1363C254.188 58.2532 255.761 57.8176 257.352 57.8933C258.943 57.9691 260.467 58.5522 261.703 59.5573C262.938 60.5623 263.819 61.9365 264.217 63.4786L265.879 61.4429L266.203 64.3273C267.398 64.2003 268.527 65.0438 269.108 66.0958C269.688 67.1478 269.414 68.5059 269.972 69.5703C272.47 74.3409 271.643 79.7116 267.785 83.3704" fill="#2F2E41"/>
<path d="M310.967 299.47C311.223 299.482 311.476 299.415 311.692 299.278C311.908 299.141 312.077 298.941 312.175 298.705C312.274 298.469 312.298 298.209 312.244 297.959C312.189 297.709 312.059 297.482 311.871 297.308L311.786 296.968C311.797 296.941 311.808 296.914 311.82 296.887C312.077 296.278 312.509 295.76 313.06 295.396C313.611 295.033 314.257 294.84 314.918 294.842C315.578 294.845 316.223 295.042 316.771 295.41C317.32 295.778 317.747 296.299 318 296.909C319.011 299.344 320.298 301.783 320.615 304.357C320.754 305.495 320.696 306.648 320.441 307.766C322.815 302.587 324.048 296.958 324.056 291.261C324.056 289.831 323.977 288.403 323.818 286.982C323.687 285.817 323.504 284.661 323.271 283.512C321.999 277.283 319.266 271.443 315.299 266.475C313.379 265.427 311.826 263.816 310.85 261.858C310.496 261.155 310.246 260.403 310.107 259.628C310.324 259.657 310.924 256.358 310.761 256.155C311.063 255.697 311.603 255.469 311.933 255.022C313.572 252.799 315.831 253.188 317.011 256.208C319.53 257.48 319.554 259.589 318.008 261.617C317.025 262.907 316.89 264.653 316.027 266.034C316.116 266.148 316.208 266.258 316.297 266.372C317.92 268.458 319.334 270.699 320.52 273.062C320.231 270.415 320.576 267.737 321.524 265.249C322.485 262.931 324.287 260.978 325.873 258.974C326.293 258.435 326.863 258.033 327.511 257.818C328.159 257.604 328.856 257.586 329.514 257.767C330.172 257.949 330.761 258.321 331.208 258.838C331.654 259.354 331.938 259.991 332.022 260.669C332.025 260.698 332.028 260.728 332.031 260.757C331.796 260.89 331.565 261.031 331.34 261.181C331.056 261.37 330.836 261.641 330.709 261.957C330.582 262.274 330.554 262.621 330.627 262.954C330.701 263.287 330.874 263.59 331.123 263.823C331.371 264.056 331.685 264.209 332.022 264.26L332.056 264.266C331.972 265.115 331.824 265.957 331.612 266.783C333.648 274.654 329.254 277.521 322.98 277.65C322.841 277.721 322.706 277.792 322.568 277.859C323.759 281.235 324.507 284.752 324.791 288.32C324.952 290.426 324.942 292.541 324.763 294.645L324.773 294.57C325.228 292.231 326.476 290.12 328.306 288.594C331.026 286.36 334.867 285.538 337.8 283.742C338.112 283.542 338.475 283.435 338.845 283.434C339.216 283.434 339.579 283.539 339.891 283.737C340.204 283.936 340.453 284.22 340.61 284.556C340.767 284.891 340.824 285.265 340.775 285.632L340.763 285.71C340.326 285.889 339.9 286.094 339.489 286.325C339.253 286.458 339.022 286.599 338.797 286.748C338.513 286.938 338.293 287.208 338.166 287.525C338.039 287.841 338.011 288.188 338.085 288.521C338.158 288.854 338.331 289.157 338.58 289.39C338.829 289.623 339.142 289.776 339.479 289.828L339.514 289.833C339.538 289.837 339.56 289.84 339.585 289.844C338.837 291.628 337.789 293.27 336.484 294.698C335.212 301.569 329.746 302.221 323.9 300.22H323.896C323.255 303.008 322.325 305.721 321.123 308.316H311.215C311.18 308.206 311.148 308.093 311.116 307.983C312.033 308.04 312.954 307.985 313.857 307.819C313.122 306.917 312.387 306.008 311.652 305.106C311.636 305.089 311.62 305.072 311.606 305.053C311.233 304.591 310.857 304.133 310.484 303.672L310.484 303.671C310.464 302.256 310.626 300.844 310.967 299.47Z" fill="#616161"/>
<path d="M157.822 308.346C157.822 308.432 157.839 308.517 157.872 308.596C157.904 308.676 157.953 308.748 158.013 308.809C158.074 308.87 158.146 308.918 158.226 308.951C158.305 308.984 158.391 309 158.477 309H340.067C340.241 309 340.407 308.931 340.53 308.808C340.653 308.686 340.722 308.519 340.722 308.346C340.722 308.172 340.653 308.006 340.53 307.883C340.407 307.76 340.241 307.692 340.067 307.692H158.477C158.391 307.691 158.305 307.708 158.226 307.741C158.146 307.774 158.074 307.822 158.013 307.883C157.953 307.943 157.904 308.016 157.872 308.095C157.839 308.175 157.822 308.26 157.822 308.346Z" fill="#616161"/>
<path d="M262.483 199.725C263.084 199.365 263.599 198.878 263.993 198.299C264.387 197.72 264.65 197.062 264.765 196.371C264.88 195.68 264.844 194.973 264.658 194.297C264.473 193.622 264.143 192.995 263.691 192.46L274.537 170.934L269.321 166.471L256.625 192.131C255.781 192.958 255.269 194.066 255.187 195.246C255.105 196.425 255.459 197.593 256.181 198.529C256.903 199.466 257.943 200.104 259.105 200.325C260.266 200.545 261.468 200.332 262.483 199.725Z" fill="#A0616A"/>
<path d="M287.036 110.874L287.58 113.386L286.277 148.507L280.708 162.912L275.034 177.597L274.336 179.405L266.259 190.945L267.04 185.816L261.091 183.1L260.536 182.853L262.68 176.794L267.612 162.873L269.745 156.847L270.207 138.919L270.636 121.969C270.71 119.051 271.39 116.181 272.63 113.54C273.871 110.899 275.646 108.544 277.844 106.624L281.725 103.237C284.034 105.376 286.079 108.092 287.036 110.874Z" fill="#B0C0D0"/>
<path d="M157.28 198.611L131.507 198.061C128.301 198.056 125.228 196.78 122.961 194.513C120.694 192.245 119.42 189.172 119.416 185.966L118.316 159.019C121.481 180.988 133.642 194.923 157.28 198.611Z" fill="#002952"/>
</g>
<defs>
<clipPath id="clip0_1437_5499">
<rect width="340.799" height="309" fill="white"/>
</clipPath>
</defs>
</svg>
