<svg width="468" height="448" viewBox="0 0 468 448" fill="none" xmlns="http://www.w3.org/2000/svg">
<g clip-path="url(#clip0_1411_8834)">
<path d="M421.054 434.023C422.823 434.133 423.8 431.937 422.462 430.657L422.329 430.128C422.347 430.085 422.364 430.043 422.382 430.001C424.17 425.737 430.231 425.767 432.004 430.036C433.578 433.826 435.582 437.622 436.075 441.629C436.297 443.397 436.197 445.199 435.805 446.935C439.492 438.881 441.433 430.088 441.433 421.244C441.433 419.022 441.311 416.8 441.062 414.583C440.858 412.77 440.576 410.968 440.211 409.183C438.237 399.532 433.963 390.34 427.799 382.663C424.835 381.043 422.364 378.512 420.871 375.477C420.335 374.383 419.915 373.205 419.716 372.006C420.053 372.05 420.987 366.915 420.733 366.6C421.203 365.887 422.044 365.533 422.558 364.837C425.11 361.377 428.628 361.981 430.464 366.683C434.386 368.662 434.424 371.945 432.017 375.101C430.486 377.11 430.276 379.827 428.932 381.977C429.071 382.154 429.214 382.326 429.352 382.503C431.887 385.753 434.079 389.246 435.927 392.916C435.405 388.837 436.176 383.923 437.491 380.756C438.987 377.147 441.792 374.107 444.262 370.987C447.229 367.24 453.313 368.875 453.836 373.626C453.841 373.672 453.846 373.718 453.85 373.764C453.484 373.971 453.124 374.191 452.773 374.423C450.77 375.747 451.463 378.85 453.835 379.216L453.889 379.225C453.756 380.546 453.53 381.856 453.198 383.144C456.367 395.395 449.526 399.857 439.758 400.057C439.542 400.168 439.332 400.278 439.116 400.383C440.106 403.169 440.897 406.027 441.483 408.923C442.008 411.482 442.373 414.069 442.577 416.667C442.832 419.945 442.809 423.239 442.533 426.511L442.55 426.395C443.252 422.791 445.209 419.425 448.051 417.093C452.284 413.616 458.265 412.336 462.832 409.541C465.031 408.196 467.848 409.934 467.464 412.482L467.446 412.604C466.766 412.881 466.102 413.201 465.461 413.561C465.094 413.768 464.735 413.987 464.383 414.22C462.381 415.544 463.073 418.647 465.446 419.013L465.5 419.022C465.538 419.027 465.571 419.033 465.61 419.038C464.443 421.807 462.818 424.378 460.784 426.594C458.802 437.289 450.292 438.304 441.19 435.189H441.184C440.189 439.523 438.735 443.757 436.866 447.792H421.441C421.385 447.62 421.336 447.443 421.286 447.272C422.712 447.36 424.15 447.278 425.554 447.018C424.41 445.614 423.265 444.199 422.121 442.795C422.093 442.767 422.071 442.74 422.049 442.712C421.468 441.993 420.882 441.28 420.302 440.562L420.302 440.561C420.265 438.355 420.53 436.156 421.054 434.023Z" fill="#48D60C"/>
<path d="M137.248 446.982C137.248 447.546 137.702 448 138.267 448H466.361C466.926 448 467.38 447.546 467.38 446.982C467.38 446.417 466.926 445.963 466.361 445.963H138.267C137.702 445.963 137.248 446.417 137.248 446.982Z" fill="#CCCCCC"/>
<path d="M187.033 447.566H36.0144C17.6003 447.566 2.61914 432.589 2.61914 414.179V89.7118C2.61914 71.3024 17.6003 56.325 36.0144 56.325H187.033C205.447 56.325 220.428 71.3024 220.428 89.7118V414.179C220.428 432.589 205.447 447.566 187.033 447.566Z" fill="#757575"/>
<path d="M220.428 175.675C219.649 175.675 219.016 176.308 219.016 177.087V222.285C219.016 223.064 219.649 223.697 220.428 223.697C221.207 223.697 221.84 223.064 221.84 222.285V177.087C221.84 176.308 221.207 175.675 220.428 175.675Z" fill="#3F3D56"/>
<path d="M217.249 89.712V414.173C217.249 430.197 204.775 443.305 189.001 444.322H188.994C188.761 444.336 188.528 444.35 188.287 444.357C187.871 444.378 187.454 444.385 187.03 444.385C187.03 444.385 185.476 444.272 182.636 444.06C179.768 443.848 175.594 443.531 170.387 443.114C168.826 442.994 167.18 442.86 165.443 442.719C161.981 442.436 158.181 442.125 154.105 441.772C152.48 441.638 150.799 441.49 149.083 441.341C140.309 440.586 130.483 439.703 120.121 438.7C118.369 438.538 116.603 438.368 114.823 438.192C114.357 438.142 113.883 438.1 113.41 438.05C106.021 437.323 5.79785 417.959 5.79785 414.173V89.712C5.79785 73.0243 19.3253 59.5003 36.0173 59.5003H54.0585C56.9406 59.5003 59.2575 61.7461 59.5048 64.6204C59.526 64.8111 59.5472 65.0017 59.5825 65.1924C60.1052 68.0808 62.7542 70.0935 65.6927 70.0935H157.355C160.293 70.0935 162.942 68.0808 163.465 65.1924C163.5 65.0017 163.521 64.8111 163.543 64.6204C163.79 61.7461 166.107 59.5003 168.989 59.5003H187.03C203.722 59.5003 217.249 73.0243 217.249 89.712Z" fill="white"/>
<path d="M1.91242 141.777C1.13345 141.777 0.5 142.41 0.5 143.189V154.488C0.5 155.267 1.13346 155.901 1.91242 155.901C2.69138 155.901 3.32484 155.267 3.32484 154.488V143.189C3.32484 142.41 2.69138 141.777 1.91242 141.777Z" fill="#3F3D56"/>
<path d="M1.91242 175.675C1.13345 175.675 0.5 176.308 0.5 177.087V198.98C0.5 199.759 1.13346 200.392 1.91242 200.392C2.69138 200.392 3.32484 199.759 3.32484 198.98V177.087C3.32484 176.308 2.69138 175.675 1.91242 175.675Z" fill="#3F3D56"/>
<path d="M1.91242 206.748C1.13345 206.748 0.5 207.382 0.5 208.16V230.053C0.5 230.832 1.13346 231.465 1.91242 231.465C2.69138 231.465 3.32484 230.832 3.32484 230.053V208.16C3.32484 207.381 2.69138 206.748 1.91242 206.748Z" fill="#3F3D56"/>
<path d="M53.5669 64.4466H26.5487C26.4021 64.4466 26.2832 64.5654 26.2832 64.712V67.7122C26.2832 67.8588 26.4021 67.9776 26.5487 67.9776H53.5669C53.7136 67.9776 53.8325 67.8588 53.8325 67.7122V64.712C53.8325 64.5654 53.7136 64.4466 53.5669 64.4466Z" fill="#E6E6E6"/>
<path d="M173.453 67.9776C175.014 67.9776 176.279 66.7129 176.279 65.1528C176.279 63.5927 175.014 62.3279 173.453 62.3279C171.892 62.3279 170.627 63.5927 170.627 65.1528C170.627 66.7129 171.892 67.9776 173.453 67.9776Z" fill="#E6E6E6"/>
<path d="M181.224 67.9776C182.784 67.9776 184.049 66.7129 184.049 65.1528C184.049 63.5927 182.784 62.3279 181.224 62.3279C179.663 62.3279 178.398 63.5927 178.398 65.1528C178.398 66.7129 179.663 67.9776 181.224 67.9776Z" fill="#E6E6E6"/>
<path d="M188.994 67.9776C190.555 67.9776 191.82 66.7129 191.82 65.1528C191.82 63.5927 190.555 62.3279 188.994 62.3279C187.434 62.3279 186.168 63.5927 186.168 65.1528C186.168 66.7129 187.434 67.9776 188.994 67.9776Z" fill="#E6E6E6"/>
<path d="M171.09 255.463H51.2506C49.3627 255.463 47.8267 253.927 47.8267 252.04C47.8267 250.152 49.3627 248.617 51.2506 248.617H171.09C172.978 248.617 174.514 250.152 174.514 252.04C174.514 253.927 172.978 255.463 171.09 255.463Z" fill="#E6E6E6"/>
<path d="M111.6 388.109C139.02 388.109 161.248 365.886 161.248 338.473C161.248 311.061 139.02 288.838 111.6 288.838C84.1802 288.838 61.9521 311.061 61.9521 338.473C61.9521 365.886 84.1802 388.109 111.6 388.109Z" fill="#B0C0D0"/>
<path d="M119.491 322.267C115.301 322.439 110.564 322.727 107.467 325.941C104.776 328.733 104.187 332.877 106.915 335.859C109.651 338.848 113.904 339.252 117.057 341.584C120.76 344.322 120.218 349.739 116.635 352.334C112.409 355.394 106.954 353.967 103.091 351.056C102.101 350.31 101.141 351.981 102.119 352.718C105.58 355.327 110.096 356.779 114.375 355.531C118.237 354.404 121.23 351.256 121.535 347.162C121.68 345.207 121.124 343.224 119.909 341.681C118.626 340.052 116.777 339.05 114.909 338.234C111.693 336.83 106.155 335.014 107.09 330.443C108.224 324.903 114.969 324.378 119.491 324.193C120.726 324.142 120.732 322.216 119.491 322.267Z" fill="white"/>
<path d="M111.718 319.646L111.533 361.916C111.528 363.155 113.453 363.157 113.459 361.916L113.643 319.646C113.649 318.407 111.723 318.406 111.718 319.646Z" fill="white"/>
<path d="M374.643 0H129.863C120.883 0 113.582 7.29976 113.582 16.2769V183.975C113.582 192.952 120.883 200.252 129.863 200.252H374.643C383.623 200.252 390.924 192.952 390.924 183.975V16.2769C390.924 7.29976 383.623 0 374.643 0Z" fill="white"/>
<path d="M251.128 99.7116C266.256 99.7116 278.52 87.4509 278.52 72.3267C278.52 57.2024 266.256 44.9418 251.128 44.9418C236 44.9418 223.736 57.2024 223.736 72.3267C223.736 87.4509 236 99.7116 251.128 99.7116Z" fill="#164D00"/>
<path d="M256.324 60.1063C252.933 60.246 249.116 60.4608 246.551 62.9835C244.427 65.0731 243.684 68.3262 245.636 70.7865C247.692 73.377 251.11 73.8685 253.793 75.5239C255.461 76.5528 256.566 78.1114 256.602 80.1145C256.636 81.9899 255.77 83.742 254.323 84.9173C250.772 87.8011 245.93 86.6073 242.571 84.0853C241.91 83.5891 241.269 84.7031 241.923 85.1937C244.705 87.2825 248.287 88.4956 251.748 87.5969C254.935 86.7697 257.502 84.2636 257.847 80.9149C258.211 77.3854 255.893 74.9822 252.887 73.6035C250.14 72.3433 245.321 71.0006 245.775 67.0855C246.353 62.1078 252.448 61.5496 256.324 61.3899C257.147 61.356 257.152 60.0722 256.324 60.1063Z" fill="white"/>
<path d="M250.431 57.7785L250.277 93.0007C250.274 93.8268 251.557 93.8279 251.561 93.0007L251.715 57.7785C251.719 56.9523 250.435 56.9513 250.431 57.7785Z" fill="white"/>
<path d="M374.643 0H129.863C120.883 0 113.582 7.29976 113.582 16.2769V183.975C113.582 192.952 120.883 200.252 129.863 200.252H374.643C383.623 200.252 390.924 192.952 390.924 183.975V16.2769C390.924 7.29976 383.623 0 374.643 0ZM389.212 183.975C389.212 192.011 382.681 198.54 374.643 198.54H129.863C121.825 198.54 115.294 192.011 115.294 183.975V16.2769C115.294 8.24115 121.825 1.71156 129.863 1.71156H374.643C382.681 1.71156 389.212 8.24114 389.212 16.2769V183.975Z" fill="#3F3D56"/>
<path d="M224.031 16.5593H200.012C198.805 16.5593 197.82 17.5434 197.82 18.7501C197.82 19.9653 198.805 20.9494 200.012 20.9494H224.031C225.238 20.9494 226.222 19.9653 226.222 18.7501C226.222 17.5435 225.238 16.5593 224.031 16.5593Z" fill="#E6E6E6"/>
<path d="M264.263 16.5593H240.244C239.037 16.5593 238.052 17.5434 238.052 18.7501C238.052 19.9653 239.037 20.9494 240.244 20.9494H264.263C265.47 20.9494 266.454 19.9653 266.454 18.7501C266.454 17.5435 265.47 16.5593 264.263 16.5593Z" fill="#E6E6E6"/>
<path d="M304.495 16.5593H280.476C279.269 16.5593 278.284 17.5434 278.284 18.7501C278.284 19.9653 279.269 20.9494 280.476 20.9494H304.495C305.702 20.9494 306.686 19.9653 306.686 18.7501C306.686 17.5435 305.702 16.5593 304.495 16.5593Z" fill="#E6E6E6"/>
<path d="M344.11 115.116H160.396C152.752 115.116 146.538 121.329 146.538 128.971V141.482C146.538 149.124 152.752 155.337 160.396 155.337H344.11C351.754 155.337 357.969 149.124 357.969 141.482V128.971C357.969 121.329 351.754 115.116 344.11 115.116Z" fill="#164D00"/>
<path d="M63.141 180.99L56.0962 177.654C58.9856 181.685 61.4754 187.981 62.8084 192.991C65.0652 188.324 68.7034 182.614 72.3046 179.203L64.859 181.118C69.4469 158.639 86.7033 142.5 106.464 142.5V140.789C85.8234 140.789 67.8254 157.603 63.141 180.99Z" fill="#3F3D56"/>
<path d="M95.5657 215.242H51.0539C49.1659 215.242 47.6299 213.706 47.6299 211.818C47.6299 209.931 49.1659 208.395 51.0539 208.395H95.5657C97.4536 208.395 98.9897 209.931 98.9897 211.818C98.9897 213.706 97.4536 215.242 95.5657 215.242Z" fill="#E6E6E6"/>
<path d="M391.672 204.093L391.223 239.042L382.525 270.197L375.571 267.604L378.659 239.047L378.253 200.402L391.672 204.093Z" fill="#FFB6B6"/>
<path d="M382.495 275.22C383.311 270.741 381.815 266.716 379.155 266.232C376.494 265.748 373.676 268.987 372.86 273.467C372.044 277.946 373.54 281.971 376.2 282.455C378.861 282.939 381.679 279.7 382.495 275.22Z" fill="#FFB6B6"/>
<path d="M381.117 162.479C381.117 162.479 396.017 162.684 396.005 170.597C395.998 175.065 395.038 215.631 392.367 240.275C390.307 259.279 386.375 264.236 386.375 264.236L376.959 242.842L381.117 162.479Z" fill="#B0C0D0"/>
<path d="M380.734 233.883H330.412C334.63 224.473 337.223 215.512 333.169 208.384L380.734 205.627C378.357 215.25 378.066 224.693 380.734 233.883Z" fill="#FFB6B6"/>
<path d="M374.53 150.494L354.539 149.115L346.266 159.453L342.073 160.215C335.787 161.358 331.31 166.966 331.591 173.348L333.222 210.414L381.005 213.897L392.452 165.629L378.666 160.142L374.53 150.494Z" fill="#B0C0D0"/>
<path d="M252.617 161.675C254.035 162.951 255.048 164.441 255.583 165.886L269.862 177.185L264.285 183.82L250.401 171.644C248.907 171.265 247.318 170.415 245.9 169.14C242.66 166.226 241.537 162.192 243.392 160.131C245.246 158.07 249.377 158.761 252.617 161.675Z" fill="#FFB6B6"/>
<path d="M353.571 171.187L298.858 208.122L259.64 180.836L265.528 170.173L296.395 188.107L324.861 166.256C334.998 156.737 347.702 158.582 353.571 171.187Z" fill="#B0C0D0"/>
<path d="M363.349 146.02C371.539 146.02 378.179 139.382 378.179 131.193C378.179 123.004 371.539 116.366 363.349 116.366C355.158 116.366 348.518 123.004 348.518 131.193C348.518 139.382 355.158 146.02 363.349 146.02Z" fill="#FFB6B6"/>
<path d="M383.507 127.55V130.425L366.781 125.719L354.241 128.346C354.095 126.437 353.53 124.563 352.589 122.903C353.244 125.566 353.317 127.626 352.623 128.688L350.937 129.039C350.663 128.295 350.132 127.644 349.439 127.25C349.37 127.208 349.284 127.173 349.207 127.199C349.088 127.242 349.079 127.396 349.079 127.516C349.096 128.149 349.113 128.782 349.139 129.416L344.294 130.425V127.55C339.646 117.094 351.897 108.047 363.905 107.953C369.323 107.91 374.22 110.144 377.772 113.686C381.316 117.238 383.507 122.133 383.507 127.55Z" fill="#41342E"/>
<path d="M392.917 161.266L391.654 161.162C391.744 160.749 391.834 160.341 391.916 159.928C392.616 156.463 391.075 152.051 390.962 148.721C390.367 152.239 391.384 156.567 390.332 159.907C390.215 160.278 385.644 162.673 385.519 163.039C380.461 161.19 375.193 155.281 369.228 158.732C365.7 160.773 361.675 159.879 357.67 158.944C356.678 158.713 356.541 153.818 355.559 153.626C353.802 153.281 351.221 157.731 349.567 157.904L356.415 131.375C356.415 116.943 355.078 101.802 373.364 106.905C377.963 108.188 382.515 109.194 385.909 112.989C389.304 116.789 391.72 122.1 392.577 128.148C393.093 131.796 396.315 144.184 392.917 161.266Z" fill="#41342E"/>
<path d="M381.108 428.043L372.945 428.236L368.395 391.571L380.441 391.286L381.108 428.043Z" fill="#FFB7B7"/>
<path d="M353.101 445.07C353.101 446.448 354.08 447.566 355.287 447.566H371.49C371.49 447.566 373.085 441.158 379.586 438.4L380.035 447.566H388.394L387.381 432.828C387.381 432.828 389.617 424.943 384.973 420.913C380.329 416.882 384.091 417.443 384.091 417.443L382.264 408.321L369.633 409.806L369.54 424.125L363.41 438.338L354.419 442.779C353.619 443.174 353.101 444.074 353.101 445.07Z" fill="#2F2E41"/>
<path d="M356.273 422.068L348.426 424.325L334.718 390.015L346.298 386.683L356.273 422.068Z" fill="#FFB7B7"/>
<path d="M333.504 445.643C333.854 446.976 335.084 447.809 336.252 447.503L351.925 443.392C351.925 443.392 351.841 436.789 357.429 432.473L360.19 441.224L368.275 439.104L363.554 425.105C363.554 425.105 363.716 416.911 358.201 414.191C352.686 411.47 356.467 411.058 356.467 411.058L352.385 402.699L340.544 407.339L344.089 421.213L341.767 436.516L334.198 443.092C333.524 443.677 333.251 444.68 333.504 445.643Z" fill="#2F2E41"/>
<path d="M376.103 231.717L381.239 233.428C389.269 248.256 392.674 267.945 392.223 291.688L383.1 398.328H368.174L357.251 279.527L337.991 324.117L352.083 398.328L337.991 399.764L309.608 322.597L329.375 232.91L376.103 231.717Z" fill="#707880"/>
</g>
<defs>
<clipPath id="clip0_1411_8834">
<rect width="467" height="448" fill="white" transform="translate(0.5)"/>
</clipPath>
</defs>
</svg>
