<svg width="472" height="326" viewBox="0 0 472 326" fill="none" xmlns="http://www.w3.org/2000/svg">
<g clip-path="url(#clip0_1411_8942)">
<path d="M42.9039 142.379C34.1767 149.52 48.4576 212.197 48.4576 212.197C48.4576 212.197 51.6311 307.8 58.3749 312.164C65.1187 316.527 80.193 311.767 86.1434 310.974C92.0938 310.18 86.9368 251.073 78.2095 229.255C69.4823 207.437 76.2261 175.701 76.2261 175.701L123.433 184.825C123.433 184.825 94.8707 209.024 96.0607 214.181C97.2508 219.338 127.796 236.792 133.35 237.585C138.904 238.379 149.614 205.85 159.135 183.635C168.656 161.42 94.0773 147.139 94.0773 147.139L83.7633 127.701C83.7633 127.701 51.6312 135.239 42.9039 142.379Z" fill="#707880"/>
<path d="M66.5958 313.81C66.5958 313.81 63.7172 323.885 66.5958 323.885C69.4744 323.885 74.7519 326.764 82.908 325.804C91.0641 324.845 88.6652 314.769 82.908 313.33C77.1508 311.891 78.5901 300.376 78.5901 300.376C76.671 296.538 67.5553 301.336 67.5553 301.336L66.5958 313.81Z" fill="#353432"/>
<path d="M107.464 233.691C107.464 233.691 102.525 242.933 105.339 243.54C108.153 244.147 112.705 248.074 120.88 248.856C129.055 249.638 128.835 239.283 123.511 236.662C118.186 234.041 122.022 223.089 122.022 223.089C120.955 218.933 111.033 221.7 111.033 221.7L107.464 233.691Z" fill="#353432"/>
<path d="M48.2593 56.4951C49.0527 58.0819 45.4824 77.9165 45.4824 77.9165L48.656 83.4702C48.656 83.4702 66.9039 76.3298 64.127 75.1397C61.3501 73.9496 61.7468 59.272 61.7468 59.272C61.7468 59.272 47.4659 54.9083 48.2593 56.4951Z" fill="#FFB9B9"/>
<path d="M55.1274 62.6091C68.5605 62.6091 79.4502 51.7194 79.4502 38.2863C79.4502 24.8532 68.5605 13.9636 55.1274 13.9636C41.6944 13.9636 30.8047 24.8532 30.8047 38.2863C30.8047 51.7194 41.6944 62.6091 55.1274 62.6091Z" fill="#41342E"/>
<path d="M53.4493 25.5808C59.0079 25.5808 63.5139 21.0748 63.5139 15.5162C63.5139 9.95773 59.0079 5.45166 53.4493 5.45166C47.8908 5.45166 43.3848 9.95773 43.3848 15.5162C43.3848 21.0748 47.8908 25.5808 53.4493 25.5808Z" fill="#41342E"/>
<path d="M57.8525 20.0748C58.2008 20.1109 58.5508 20.1291 58.9009 20.1292C60.2227 20.1292 61.5314 19.8689 62.7525 19.3631C63.9736 18.8573 65.0831 18.1159 66.0177 17.1813C66.9523 16.2468 67.6936 15.1372 68.1994 13.9162C68.7052 12.6951 68.9655 11.3863 68.9655 10.0646C68.9655 8.74289 68.7052 7.43413 68.1994 6.21304C67.6936 4.99195 66.9523 3.88244 66.0177 2.94785C65.0831 2.01327 63.9736 1.27191 62.7525 0.766122C61.5314 0.260328 60.2227 -3.93898e-08 58.9009 0C58.5508 9.00568e-05 58.2008 0.0182521 57.8525 0.0544151C60.3268 0.313652 62.6174 1.48006 64.2824 3.32859C65.9473 5.17712 66.8687 7.57678 66.8687 10.0646C66.8687 12.5524 65.9473 14.9521 64.2824 16.8006C62.6174 18.6491 60.3268 19.8155 57.8525 20.0748Z" fill="#41342E"/>
<path d="M55.7959 66.8091C64.9975 66.8091 72.457 59.3497 72.457 50.148C72.457 40.9463 64.9975 33.4869 55.7959 33.4869C46.5942 33.4869 39.1348 40.9463 39.1348 50.148C39.1348 59.3497 46.5942 66.8091 55.7959 66.8091Z" fill="#FFB9B9"/>
<path d="M31.7964 75.7347C26.6393 76.9248 17.9121 89.619 17.9121 89.619L31.7964 103.503C31.7964 103.503 41.7137 140.792 42.9038 142.379C50.7004 152.775 85.7466 129.685 85.7466 129.685C85.7466 129.685 84.3582 118.379 85.1516 112.826C85.9147 107.484 82.1764 96.7595 82.1764 96.7595C82.1764 96.7595 95.2673 91.2058 92.4905 85.652C89.7136 80.0983 72.6558 67.4042 65.5153 71.7678C58.3749 76.1314 44.0939 71.7678 44.0939 71.7678C44.0939 71.7678 36.9534 74.5446 31.7964 75.7347Z" fill="#B0C0D0"/>
<path d="M133.151 155.668C133.151 155.668 155.763 175.106 161.317 171.139C166.87 167.172 139.895 153.288 139.895 153.288L133.151 155.668Z" fill="#FFB9B9"/>
<path d="M31.5977 148.925C34.7712 152.495 49.8456 143.371 47.913 139.319C45.9804 135.267 33.9778 143.371 33.9778 143.371C33.9778 143.371 28.4241 145.354 31.5977 148.925Z" fill="#FFB9B9"/>
<path d="M31.796 95.1726L15.1349 126.115C15.1349 126.115 34.1762 141.982 36.5563 142.379C38.9365 142.776 31.796 153.09 31.796 153.09C31.796 153.09 10.3746 138.015 2.04405 130.478C-6.2865 122.941 17.9118 89.6189 17.9118 89.6189L25.0523 85.2553L31.796 95.1726Z" fill="#B0C0D0"/>
<path d="M80.1924 93.9826L99.6303 124.131C99.6303 124.131 129.382 157.453 133.349 159.04C137.316 160.627 142.076 153.09 142.076 153.09L106.374 109.85L92.8866 85.652L87.7296 83.6686L80.1924 93.9826Z" fill="#B0C0D0"/>
<path d="M55.1269 40.417C64.3911 40.417 71.9012 35.9109 71.9012 30.3524C71.9012 24.7939 64.3911 20.2878 55.1269 20.2878C45.8627 20.2878 38.3525 24.7939 38.3525 30.3524C38.3525 35.9109 45.8627 40.417 55.1269 40.417Z" fill="#41342E"/>
<path d="M102.185 247.507C101.635 247.508 101.108 247.727 100.719 248.115C100.331 248.504 100.112 249.031 100.111 249.581V320.306C100.112 320.856 100.331 321.383 100.719 321.772C101.108 322.161 101.635 322.379 102.185 322.38H343.347C343.897 322.379 344.424 322.161 344.812 321.772C345.201 321.383 345.42 320.856 345.421 320.306V249.581C345.42 249.031 345.201 248.504 344.812 248.115C344.424 247.727 343.897 247.508 343.347 247.507L102.185 247.507Z" fill="#E6E6E6"/>
<path d="M105.308 317.184H340.224V252.704H105.308V317.184Z" fill="white"/>
<path d="M310.572 303.807C310.12 303.806 309.673 303.895 309.256 304.067C308.839 304.24 308.46 304.493 308.14 304.812C307.821 305.131 307.568 305.509 307.395 305.926C307.222 306.343 307.133 306.79 307.133 307.242C307.133 307.693 307.222 308.14 307.395 308.557C307.568 308.974 307.821 309.353 308.14 309.672C308.46 309.991 308.839 310.244 309.256 310.417C309.673 310.589 310.12 310.677 310.572 310.677H324.311C325.222 310.677 326.096 310.315 326.74 309.671C327.385 309.027 327.746 308.153 327.746 307.242C327.746 306.331 327.385 305.457 326.74 304.813C326.096 304.169 325.222 303.807 324.311 303.807H310.572Z" fill="#B0C0D0"/>
<path d="M327.747 297.144H169.139V298.048H327.747V297.144Z" fill="#E6E6E6"/>
<path d="M135.984 304.95C147.033 304.95 155.991 295.993 155.991 284.944C155.991 273.894 147.033 264.937 135.984 264.937C124.935 264.937 115.978 273.894 115.978 284.944C115.978 295.993 124.935 304.95 135.984 304.95Z" fill="#E20303"/>
<path d="M169.389 292.098L168.888 291.346L185.369 280.358L196.671 285.783L212.928 275.397L245.266 289.191L271.018 276.541L296.025 286.679L327.446 258.849L328.046 259.525L296.205 287.728L271.054 277.531L245.292 290.185L213.012 276.415L196.734 286.816L185.442 281.396L169.389 292.098Z" fill="#3F3D56"/>
<path d="M172.076 304.279C171.69 304.279 171.307 304.355 170.951 304.502C170.594 304.649 170.27 304.866 169.996 305.138C169.723 305.411 169.507 305.735 169.359 306.092C169.211 306.448 169.135 306.831 169.135 307.217C169.135 307.603 169.211 307.985 169.359 308.342C169.507 308.698 169.723 309.022 169.996 309.295C170.27 309.568 170.594 309.784 170.951 309.931C171.307 310.079 171.69 310.154 172.076 310.154H202.803C203.581 310.153 204.328 309.843 204.878 309.292C205.428 308.742 205.737 307.995 205.737 307.217C205.737 306.438 205.428 305.692 204.878 305.141C204.328 304.59 203.581 304.28 202.803 304.279H172.076Z" fill="#E6E6E6"/>
<path d="M143.626 275.993H146.752L140.247 282.431C139.111 283.551 137.579 284.179 135.984 284.179C134.388 284.179 132.857 283.551 131.72 282.431L125.217 275.993H128.343L133.284 280.884C134.004 281.593 134.974 281.991 135.984 281.991C136.995 281.991 137.965 281.593 138.684 280.884L143.626 275.993ZM128.303 293.894H125.177L131.721 287.417C132.858 286.297 134.389 285.669 135.985 285.669C137.58 285.669 139.112 286.297 140.248 287.417L146.793 293.894H143.666L138.684 288.964C137.965 288.255 136.995 287.857 135.984 287.857C134.974 287.857 134.004 288.255 133.284 288.964L128.303 293.894Z" fill="white"/>
<path d="M133.588 20.9666C133.039 20.9673 132.511 21.1859 132.123 21.5747C131.734 21.9634 131.515 22.4905 131.515 23.0403V93.7659C131.515 94.3156 131.734 94.8427 132.123 95.2314C132.511 95.6202 133.039 95.8388 133.588 95.8395H374.75C375.3 95.8388 375.827 95.6202 376.216 95.2314C376.605 94.8427 376.823 94.3156 376.824 93.7659V23.0402C376.823 22.4905 376.605 21.9634 376.216 21.5747C375.827 21.1859 375.3 20.9672 374.75 20.9666L133.588 20.9666Z" fill="#E6E6E6"/>
<path d="M136.711 90.643H371.627V26.1631H136.711V90.643Z" fill="white"/>
<path d="M341.975 77.2664C341.064 77.2664 340.19 77.6283 339.546 78.2725C338.902 78.9166 338.54 79.7903 338.54 80.7013C338.54 81.6123 338.902 82.486 339.546 83.1302C340.19 83.7744 341.064 84.1362 341.975 84.1362H355.715C356.626 84.1362 357.499 83.7744 358.143 83.1302C358.788 82.486 359.15 81.6123 359.15 80.7013C359.15 79.7903 358.788 78.9166 358.143 78.2725C357.499 77.6283 356.626 77.2664 355.715 77.2664H341.975Z" fill="#B0C0D0"/>
<path d="M359.15 70.6037H200.542V71.5074H359.15V70.6037Z" fill="#E6E6E6"/>
<path d="M167.387 78.4097C178.437 78.4097 187.394 69.4524 187.394 58.4031C187.394 47.3537 178.437 38.3965 167.387 38.3965C156.338 38.3965 147.381 47.3537 147.381 58.4031C147.381 69.4524 156.338 78.4097 167.387 78.4097Z" fill="#164D00"/>
<path d="M200.792 65.5569L200.291 64.8049L216.772 53.8172L228.074 59.2424L244.331 48.8564L244.551 48.9497L276.669 62.6509L302.422 50.0006L327.428 60.1385L358.85 32.3077L359.449 32.9842L327.608 61.1865L302.457 50.9901L276.696 63.6447L244.416 49.8748L228.137 60.2749L216.846 54.8546L200.792 65.5569Z" fill="#3F3D56"/>
<path d="M203.478 77.7389C202.7 77.7399 201.954 78.0498 201.404 78.6005C200.854 79.1512 200.545 79.8977 200.545 80.6761C200.545 81.4544 200.854 82.2009 201.404 82.7517C201.954 83.3024 202.7 83.6123 203.478 83.6133H234.206C234.985 83.6133 235.732 83.3038 236.283 82.753C236.834 82.2022 237.143 81.4551 237.143 80.6761C237.143 79.8971 236.834 79.15 236.283 78.5992C235.732 78.0483 234.985 77.7389 234.206 77.7389H203.478Z" fill="#E6E6E6"/>
<path d="M175.437 56.0679C175.811 53.5643 173.905 52.2184 171.298 51.3206L172.144 47.9292L170.079 47.4147L169.256 50.7168C168.714 50.5815 168.156 50.4539 167.602 50.3275L168.432 47.0037L166.368 46.4892L165.522 49.8795C165.073 49.7772 164.632 49.676 164.204 49.5696L164.206 49.559L161.359 48.8482L160.81 51.0531C160.81 51.0531 162.342 51.4041 162.31 51.4258C162.595 51.4601 162.856 51.605 163.036 51.8295C163.216 52.0541 163.3 52.3403 163.271 52.6265L162.308 56.4901C162.381 56.5083 162.453 56.5312 162.523 56.5589L162.305 56.5048L160.955 61.9171C160.925 62.0116 160.877 62.0992 160.813 62.1751C160.75 62.2509 160.672 62.3134 160.584 62.359C160.496 62.4046 160.4 62.4323 160.301 62.4406C160.202 62.4489 160.103 62.4377 160.009 62.4075C160.029 62.4375 158.508 62.0329 158.508 62.0329L157.483 64.3966L160.17 65.0663C160.67 65.1916 161.16 65.3227 161.642 65.4461L160.787 68.877L162.849 69.3915L163.696 65.9977C164.259 66.1505 164.805 66.2917 165.341 66.4245L164.497 69.8025L166.562 70.3169L167.416 66.8932C170.936 67.5593 173.584 67.2906 174.697 64.1073C175.595 61.5437 174.653 60.065 172.801 59.1001C174.15 58.7879 175.166 57.9006 175.437 56.0679L175.437 56.0679ZM170.72 62.6821C170.081 65.2457 165.766 63.8604 164.366 63.5123L165.499 58.9678C166.899 59.3171 171.386 60.0086 170.721 62.6821H170.72ZM171.358 56.0309C170.776 58.3628 167.183 57.178 166.017 56.8876L167.045 52.7659C168.211 53.0563 171.965 53.5984 171.358 56.0309Z" fill="white"/>
<path d="M228.466 134.237C227.916 134.238 227.389 134.456 227.001 134.845C226.612 135.234 226.393 135.761 226.393 136.311V207.036C226.393 207.586 226.612 208.113 227.001 208.502C227.389 208.89 227.916 209.109 228.466 209.11H469.628C470.178 209.109 470.705 208.89 471.094 208.502C471.482 208.113 471.701 207.586 471.702 207.036V136.311C471.701 135.761 471.482 135.234 471.094 134.845C470.705 134.456 470.178 134.238 469.628 134.237L228.466 134.237Z" fill="#E6E6E6"/>
<path d="M231.589 203.913H466.505V139.433H231.589V203.913Z" fill="white"/>
<path d="M436.853 190.537C435.942 190.537 435.068 190.899 434.424 191.543C433.78 192.187 433.418 193.061 433.418 193.972C433.418 194.883 433.78 195.756 434.424 196.4C435.068 197.045 435.942 197.407 436.853 197.407H450.593C451.504 197.407 452.377 197.045 453.021 196.4C453.666 195.756 454.027 194.883 454.027 193.972C454.027 193.061 453.666 192.187 453.021 191.543C452.377 190.899 451.504 190.537 450.593 190.537H436.853Z" fill="#B0C0D0"/>
<path d="M454.028 183.874H295.42V184.778H454.028V183.874Z" fill="#E6E6E6"/>
<path d="M262.265 191.68C273.315 191.68 282.272 182.723 282.272 171.673C282.272 160.624 273.315 151.667 262.265 151.667C251.216 151.667 242.259 160.624 242.259 171.673C242.259 182.723 251.216 191.68 262.265 191.68Z" fill="#B0C0D0"/>
<path d="M295.67 178.827L295.169 178.075L311.65 167.088L322.953 172.513L339.209 162.127L339.429 162.22L371.547 175.921L397.3 163.271L422.307 173.409L453.728 145.578L454.327 146.255L422.486 174.457L397.335 164.261L371.574 176.915L339.294 163.145L323.015 173.545L311.724 168.126L295.67 178.827Z" fill="#3F3D56"/>
<path d="M298.357 191.009C297.578 191.009 296.831 191.319 296.28 191.869C295.729 192.42 295.42 193.167 295.42 193.946C295.42 194.725 295.729 195.472 296.28 196.023C296.831 196.574 297.578 196.884 298.357 196.884H329.085C329.864 196.884 330.611 196.574 331.161 196.023C331.712 195.472 332.022 194.725 332.022 193.946C332.022 193.167 331.712 192.42 331.161 191.869C330.611 191.319 329.864 191.009 329.085 191.009H298.357Z" fill="#E6E6E6"/>
<path d="M262.263 184.859L270.362 173.453L262.263 178.235L254.169 173.453L262.263 184.859H262.263Z" fill="white"/>
<path d="M262.263 176.702H262.263L270.357 171.918L262.263 158.488H262.263L254.169 171.918L262.263 176.702Z" fill="white"/>
</g>
<defs>
<clipPath id="clip0_1411_8942">
<rect width="471.403" height="326" fill="white" transform="translate(0.298828)"/>
</clipPath>
</defs>
</svg>
